<svg id="visual" viewBox="0 0 1920 1080" width="1920" height="1080" xmlns="http://www.w3.org/2000/svg" xmlns:xlink="http://www.w3.org/1999/xlink" version="1.1"><rect x="0" y="0" width="1920" height="1080" fill="#FFFFFF"></rect><path d="M0 789L45.7 782C91.3 775 182.7 761 274.2 754.8C365.7 748.7 457.3 750.3 548.8 741.5C640.3 732.7 731.7 713.3 823 702.5C914.3 691.7 1005.7 689.3 1097 681.5C1188.3 673.7 1279.7 660.3 1371.2 671.8C1462.7 683.3 1554.3 719.7 1645.8 726.5C1737.3 733.3 1828.7 710.7 1874.3 699.3L1920 688L1920 1081L1874.3 1081C1828.7 1081 1737.3 1081 1645.8 1081C1554.3 1081 1462.7 1081 1371.2 1081C1279.7 1081 1188.3 1081 1097 1081C1005.7 1081 914.3 1081 823 1081C731.7 1081 640.3 1081 548.8 1081C457.3 1081 365.7 1081 274.2 1081C182.7 1081 91.3 1081 45.7 1081L0 1081Z" fill="#5e9ed9"></path><path d="M0 709L45.7 716.5C91.3 724 182.7 739 274.2 756.7C365.7 774.3 457.3 794.7 548.8 795.8C640.3 797 731.7 779 823 761.3C914.3 743.7 1005.7 726.3 1097 725.2C1188.3 724 1279.7 739 1371.2 742.5C1462.7 746 1554.3 738 1645.8 746.5C1737.3 755 1828.7 780 1874.3 792.5L1920 805L1920 1081L1874.3 1081C1828.7 1081 1737.3 1081 1645.8 1081C1554.3 1081 1462.7 1081 1371.2 1081C1279.7 1081 1188.3 1081 1097 1081C1005.7 1081 914.3 1081 823 1081C731.7 1081 640.3 1081 548.8 1081C457.3 1081 365.7 1081 274.2 1081C182.7 1081 91.3 1081 45.7 1081L0 1081Z" fill="#82b0e3"></path><path d="M0 921L45.7 913.7C91.3 906.3 182.7 891.7 274.2 887.7C365.7 883.7 457.3 890.3 548.8 877.5C640.3 864.7 731.7 832.3 823 835.8C914.3 839.3 1005.7 878.7 1097 886.5C1188.3 894.3 1279.7 870.7 1371.2 861.5C1462.7 852.3 1554.3 857.7 1645.8 852.7C1737.3 847.7 1828.7 832.3 1874.3 824.7L1920 817L1920 1081L1874.3 1081C1828.7 1081 1737.3 1081 1645.8 1081C1554.3 1081 1462.7 1081 1371.2 1081C1279.7 1081 1188.3 1081 1097 1081C1005.7 1081 914.3 1081 823 1081C731.7 1081 640.3 1081 548.8 1081C457.3 1081 365.7 1081 274.2 1081C182.7 1081 91.3 1081 45.7 1081L0 1081Z" fill="#a1c3ec"></path><path d="M0 937L45.7 939.3C91.3 941.7 182.7 946.3 274.2 943.5C365.7 940.7 457.3 930.3 548.8 931.3C640.3 932.3 731.7 944.7 823 935.8C914.3 927 1005.7 897 1097 891.2C1188.3 885.3 1279.7 903.7 1371.2 921.8C1462.7 940 1554.3 958 1645.8 964.8C1737.3 971.7 1828.7 967.3 1874.3 965.2L1920 963L1920 1081L1874.3 1081C1828.7 1081 1737.3 1081 1645.8 1081C1554.3 1081 1462.7 1081 1371.2 1081C1279.7 1081 1188.3 1081 1097 1081C1005.7 1081 914.3 1081 823 1081C731.7 1081 640.3 1081 548.8 1081C457.3 1081 365.7 1081 274.2 1081C182.7 1081 91.3 1081 45.7 1081L0 1081Z" fill="#bed6f5"></path><path d="M0 977L45.7 975.3C91.3 973.7 182.7 970.3 274.2 969.2C365.7 968 457.3 969 548.8 971.2C640.3 973.3 731.7 976.7 823 975.5C914.3 974.3 1005.7 968.7 1097 964.8C1188.3 961 1279.7 959 1371.2 961.3C1462.7 963.7 1554.3 970.3 1645.8 983C1737.3 995.7 1828.7 1014.3 1874.3 1023.7L1920 1033L1920 1081L1874.3 1081C1828.7 1081 1737.3 1081 1645.8 1081C1554.3 1081 1462.7 1081 1371.2 1081C1279.7 1081 1188.3 1081 1097 1081C1005.7 1081 914.3 1081 823 1081C731.7 1081 640.3 1081 548.8 1081C457.3 1081 365.7 1081 274.2 1081C182.7 1081 91.3 1081 45.7 1081L0 1081Z" fill="#dbeafe"></path></svg>